<?xml version="1.0" encoding="utf-8"?>
<!-- Generator: Adobe Illustrator 21.0.0, SVG Export Plug-In . SVG Version: 6.00 Build 0)  -->
<svg version="1.1" id="Layer_1" xmlns="http://www.w3.org/2000/svg" xmlns:xlink="http://www.w3.org/1999/xlink" x="0px" y="0px"
	 viewBox="0 0 328.7 40.3" style="enable-background:new 0 0 328.7 40.3;" xml:space="preserve">
<style type="text/css">
	.st0{fill:#FCD116;}
</style>
<g>
	<path class="st0" d="M216.9,32.1c0.3-0.5,0.7-1.1,1.2-1.8c0.7-1.1,1.3-1.9,1.8-2.7c0.6-0.8,1.2-1.7,2.4-2.9h-4.5l-0.5,1.1h0.7
		c0.5,0,0.7,0.1,0.7,0.4c0,0.3,0,0.9-0.6,1.7l-2.7,4l-4-7.1h-0.1h-3.4h-10.7l-0.3,3.3h1.3l0.1-0.8c0-0.4,0.2-0.6,0.6-0.9
		c0.7-0.5,2.4-0.5,3.8-0.5V38c0,0.6,0,0.9-0.2,1.4c-0.1,0.2-0.2,0.6-0.5,0.8h4.9l0.4-1.1h-0.7c-0.6,0-1-0.1-1.3-0.5
		c-0.2-0.2-0.2-0.6-0.2-1V25.8c0.7,0,3.2,0,3.7,0.4c0.7,0.6,1.6,2,1.6,2c0.3,0.5,0.7,1.1,1.1,1.7c1,1.5,1.6,2.6,2.1,3.8v4
		c0,0.6,0,1.2-0.2,1.6c-0.1,0.3-0.4,0.6-0.6,0.8h4.9l0.4-1.1h-0.7c-0.6,0-1-0.1-1.3-0.4c-0.2-0.2-0.2-0.6-0.2-1c0,0-0.1-3.7,0-4.2
		C216.3,33,216.6,32.6,216.9,32.1z"/>
	<path class="st0" d="M185.3,31.2l-1.6-0.7c-1.6-0.7-3-1.5-2.8-2.9c0.4-2.6,6.1-3,5.6,0.4h1.5l0.7-3.1c-1.3-0.4-2.6-0.6-4.2-0.6
		c-3.3,0-6.3,1.6-6,4.3c0.2,1.9,1.7,2.8,3.6,3.6l1.6,0.7c1.8,0.8,3.3,1.6,3.3,3.2c-0.1,1.7-1.7,3-3.9,3c-3,0-4-0.9-4-0.9l-5.8-6.3
		c2.2-0.4,3.8-1.9,3.7-3.9c-0.1-2.5-2.9-3.4-5.3-3.3h-6.4l-0.4,1h0.6c0.4,0,0.7,0.1,0.9,0.4c0.4,0.4,0.4,1.4,0.4,2.4v9.7
		c0,0.8-0.2,1.4-0.7,1.9h4.6l0.4-1.1h-0.7c-0.9,0-1.2-0.5-1.2-1.3V25.8c2.5-0.4,5.1,0.3,5.1,2.5c0,1.7-1.8,2.9-4.6,3l7.6,8.7
		c0,0,4.2,0.3,5.4,0.3c3.6,0.1,6.6-2,6.6-5C189.4,33.1,187.5,32.1,185.3,31.2z"/>
	<path class="st0" d="M49.7,22.9h-1.5l0.1-0.7c0.1-0.9,0-1.5-0.6-2.1c-0.7-0.8-3.5-0.7-5.3-0.7v17.4c0,0.7,0.1,1.3,0.3,1.6
		c0.5,0.6,1.1,0.7,1.9,0.7h0.7l-0.4,1.1H39c0.2-0.3,0.4-0.6,0.5-0.9c0.3-0.8,0.3-1.3,0.3-2.1V19.4c-1.9,0-4.4,0-5.4,0.8
		c-0.6,0.5-0.9,0.8-0.9,1.5l-0.1,0.9H32l0.5-4.4h18.1L49.7,22.9z"/>
	<path class="st0" d="M65.6,40.2h-4.4c0.3-0.8,0.4-1.1,0.4-1.8v-6.5c-0.7,0.5-1.4,0.5-2.2,0.6c-0.7,0-1.5,0.1-2.3,0.1
		c-1.4,0.1-2.1,0.1-3.4,0.1v5.2c0,0.9,0.3,1.3,1.3,1.3h0.6l-0.3,1h-4.6c0.4-0.7,0.5-1.2,0.6-2c0-0.3,0-0.6,0-1v-9.4
		c0-0.5,0.1-1.4-0.3-1.8c-0.3-0.3-0.6-0.3-1.1-0.3h-0.6l0.4-1.1h4.2c-0.1,0.3-0.2,0.4-0.2,0.6c-0.1,0.4-0.1,1.6-0.1,2v3.7h8v-3.2
		c0-0.5,0.1-1.4-0.3-1.8c-0.2-0.3-0.6-0.3-1-0.3h-0.7l0.5-1.1h4.2c-0.1,0.4-0.2,0.4-0.2,0.6c-0.1,0.5-0.1,1.6-0.1,2v10.5
		c0,0.9,0.3,1.3,1.4,1.3h0.7L65.6,40.2z"/>
	<path class="st0" d="M78.5,40.2h-11c0.2-0.3,0.5-0.6,0.6-1c0.2-0.6,0.1-1.2,0.1-1.8v-8.9c0-0.5,0-1.7-0.2-2.2
		c-0.3-0.4-0.5-0.6-1.1-0.6h-0.6l0.4-1c0,0,10.9,0,11.4,0l-0.5,3.4h-1.4c0.1-0.8-0.1-1.3-0.5-1.8c-0.5-0.5-1.9-0.6-3.3-0.6
		c-0.7,0-1.2,0-1.8,0.2v5.2h6.2c-0.4,1.1-1.2,1.3-2.3,1.4c-0.5,0-0.9,0.1-1.5,0.1c-1,0.1-1.6,0-2.5,0v4.6c0,0.5,0.2,1.2,0.4,1.4
		c0.3,0.3,1.4,0.4,2.5,0.4c1.2,0,2.2,0,2.9-0.8c0.5-0.5,0.7-0.9,0.9-1.7h1.6L78.5,40.2z"/>
	<path class="st0" d="M109,40.2h-5v-2c-3.4,1.8-6.7,3.1-10.5,2c-4.4-1.3-4.1-6.5-4.2-11.1c0-3.5,0.9-7.8,0.3-9
		c-0.3-0.5-0.9-0.9-1.6-0.9h-0.6l0.3-1.1h5.5c-0.3,0.4-0.3,0.7-0.4,1.1c-0.3,1.5-0.9,6.6-0.9,10.3c0,4.1,0.3,7.8,3.9,8.8
		c3.1,0.9,5.7,0,8.1-1.6V21.9c0-0.9,0-1.6-0.7-2.1c-0.5-0.4-1-0.5-1.6-0.5h-0.3l0.3-1.1h5.5c-0.3,0.5-0.4,0.8-0.5,1.3
		c-0.2,0.9-0.1,1.5-0.1,2.4v14c0,1.1,0,2.1,0.9,2.7c0.5,0.4,1,0.5,1.6,0.5h0.4L109,40.2z"/>
	<path class="st0" d="M125.4,25.8c-0.1,0.4-0.2,1.8-0.2,2.3v12h-1.9c-0.1-0.7-0.3-0.8-0.6-1.3s-0.6-0.9-0.9-1.3l-8.5-9.9v8.6
		c0,0.9,0.1,2.1,0.3,2.3c0.3,0.4,0.7,0.5,1.1,0.5h0.6l-0.4,1.1h-4.3c0.3-0.3,0.6-0.7,0.7-1.1c0.3-0.9,0.3-1.3,0.3-2.2v-9
		c0-0.5,0-1.5-0.4-1.9c-0.2-0.3-0.6-0.3-1-0.3h-0.6l0.4-1h4.4c0.2,0.8,0.7,1.3,1.4,2.1l7.8,9.1v-7.6c0-0.9,0-1.7-0.4-2.1
		c-0.2-0.3-0.6-0.4-1-0.4h-0.6l0.4-1h4C125.7,25.1,125.5,25.6,125.4,25.8z"/>
	<path class="st0" d="M133.9,40.2H129c0.2-0.3,0.4-0.5,0.5-0.8c0.2-0.5,0.2-0.9,0.2-1.5V27.2c0-0.5,0-0.9-0.3-1.2s-0.5-0.4-0.9-0.4
		H128l0.4-1h4.4c-0.3,0.3-0.3,0.5-0.5,0.8c-0.2,0.4-0.2,1.2-0.2,2v10.2c0,0.4,0.1,0.8,0.2,1c0.3,0.3,0.6,0.4,1.2,0.4h0.7L133.9,40.2
		z"/>
	<path class="st0" d="M148,28.6c-0.6,1.2-1.1,2.5-1.8,4.1c-1.2,2.6-2.4,5.7-2.5,7.6h-2c-0.2-1.4-1.6-5-2.8-8c-1-2.4-2.5-5.4-3-5.9
		c-0.3-0.4-0.7-0.7-1.2-0.7h-0.6l0.3-1h3.9l4.8,11.7l3.6-8.5c0.3-0.7,0.4-1.3,0.3-1.6c-0.2-0.4-0.5-0.6-1-0.6h-0.6l0.3-1h4.8
		C149.2,26.3,148.6,27.4,148,28.6z"/>
	<path class="st0" d="M163.5,40.2h-11c0.2-0.3,0.5-0.6,0.6-1c0.2-0.6,0.1-1.2,0.1-1.8v-8.9c0-0.5,0-1.7-0.2-2.2
		c-0.3-0.4-0.5-0.6-1.1-0.6h-0.6l0.4-1c0,0,10.9,0,11.4,0l-0.5,3.4h-1.4c0.1-0.8-0.1-1.3-0.5-1.8c-0.5-0.5-1.9-0.6-3.3-0.6
		c-0.7,0-1.2,0-1.8,0.2v5.2h6.2c-0.4,1.1-1.2,1.3-2.3,1.4c-0.5,0-0.9,0.1-1.5,0.1c-1,0.1-1.6,0-2.5,0v4.6c0,0.5,0.2,1.2,0.4,1.4
		c0.3,0.3,1.4,0.4,2.5,0.4c1.2,0,2.2,0,2.9-0.8c0.5-0.5,0.7-0.9,0.9-1.7h1.6L163.5,40.2z"/>
	<path class="st0" d="M196.5,40.2h-4.9c0.2-0.3,0.4-0.5,0.5-0.8c0.2-0.5,0.2-0.9,0.2-1.5V27.2c0-0.5,0-0.9-0.3-1.2s-0.5-0.4-0.9-0.4
		h-0.5l0.4-1h4.4c-0.3,0.3-0.3,0.5-0.5,0.8c-0.2,0.4-0.2,1.2-0.2,2v10.2c0,0.4,0.1,0.8,0.2,1c0.3,0.3,0.6,0.4,1.2,0.4h0.7
		L196.5,40.2z"/>
	<path class="st0" d="M243.9,31.4c0.7,3.5-1.1,7-4.8,7.7c-3.8,0.7-6.8-2.1-7.5-5.7c-0.7-3.5,0.8-7.1,4.6-7.8
		C240.1,25,243.2,27.9,243.9,31.4z M246.7,31.4c-0.6-4.5-4.5-7.7-10-6.9c-5.3,0.7-8.3,4.4-7.7,9.1c0.6,4.5,4.3,7.5,9.7,6.8
		C244,39.8,247.2,35.9,246.7,31.4z"/>
	<path class="st0" d="M258.2,28.1h-1.4c0-0.7-0.1-1.3-0.6-1.8c-0.4-0.5-1.6-0.6-2.9-0.6c-0.7,0-1.2,0-1.8,0.2v5.2h6.2
		c-0.1,0.4-0.4,1-0.8,1.2c-0.6,0.3-1.7,0.3-2.8,0.4c-1,0-1.7,0.1-2.6,0v4.9c0,0.5,0.2,1.1,0.4,1.3c0.2,0.2,0.6,0.4,1.1,0.4
		c0.2,0,0.6,0,0.8,0c-0.2,0.6-0.3,1.1-0.3,1.1h-5c0.2-0.3,0.5-0.6,0.6-1c0.2-0.6,0.1-1.1,0.1-1.8v-8.9c0-0.5,0-1.8-0.2-2.3
		c-0.3-0.4-0.6-0.5-1.2-0.5h-0.6l0.4-1c0,0,10.5,0,11.1,0L258.2,28.1z"/>
	<path class="st0" d="M274.2,40.2h-5.9c0.2-0.3,0.4-0.6,0.5-0.9c0.3-0.8,0.3-1.3,0.3-2.1V21.7c0-0.7,0-1.3-0.4-1.7s-0.8-0.6-1.4-0.6
		h-0.4l0.3-1.1h5.3c-0.2,0.3-0.3,0.4-0.5,0.8c-0.3,0.7-0.4,1.9-0.4,3.1V37c0,0.6,0.1,1.3,0.3,1.6c0.5,0.6,1.1,0.7,1.9,0.7h0.7
		L274.2,40.2z"/>
	<path class="st0" d="M289.7,31.4c0.7,3.5-1.1,7-4.8,7.7c-3.8,0.7-6.8-2.1-7.5-5.7c-0.7-3.5,0.8-7.1,4.6-7.8
		C285.8,25,289,27.9,289.7,31.4z M292.4,31.4c-0.6-4.5-4.5-7.7-10-6.9c-5.3,0.7-8.3,4.4-7.7,9.1c0.6,4.5,4.3,7.5,9.7,6.8
		C289.8,39.8,293,35.9,292.4,31.4z"/>
	<path class="st0" d="M313.8,28.6c-0.6,1.2-1.1,2.5-1.8,4.1c-1.2,2.7-2.1,5.8-2.1,7.6h-2c-0.2-1.4-1.4-4.5-2.5-7.6
		c-0.2-0.5-0.4-1.2-0.7-1.7c-0.3,0.6-0.6,1.1-1.2,2.4c-1.2,2.7-2,5.2-2.1,7h-2.1c-0.2-1.4-1.6-5-2.8-8c-1-2.4-2.5-5.4-3-5.9
		c-0.3-0.4-0.7-0.7-1.2-0.7h-0.5l0.3-1h4l4.5,11.8c0.7-1.5,3.1-7.1,3.1-7.2c-0.6-1.5-1.2-2.7-1.5-3c-0.4-0.4-0.7-0.7-1.2-0.7h-0.6
		l0.4-1h4c1.3,3.3,3.2,8.6,4.2,11.6l3.3-8.2c0.3-0.7,0.6-1.6,0.4-1.8c-0.2-0.4-0.5-0.6-1-0.6h-0.6l0.3-1h4.8
		C315,26.3,314.4,27.4,313.8,28.6z"/>
	<path class="st0" d="M322.2,33.1c-1.6,0.1-3,0.1-4.5-0.1l2.3-5.7L322.2,33.1z M329.1,39.1h-0.6c-0.5,0-0.9-0.3-1.2-0.7
		c-0.5-0.5-1.8-3.6-2.8-6c-1.2-3-2.4-6.4-2.7-7.9h-3.5c0.8,1.6-0.6,4.8-1.8,7.5c-1.4,3.2-2.2,5.1-4.5,8.2h5l0.3-1.1h-0.6
		c-0.5,0-0.9-0.2-1-0.6c-0.1-0.3,0.1-1,0.3-1.6l1-2.3h3.6c0.8,0,1.5-0.2,1.9-0.7l2.3,6.4h3.9L329.1,39.1z"/>
</g>
<g>
	<path class="st0" d="M12.2,5c0,0.6,0,1.5,0.2,1.6c0.8,0.5,2.1,0.9,2.5,1.4c0.1,0.1,0,1-0.3,0.9c-2.1-0.5-2.2-0.4-3.7-0.4
		c-0.1,0-0.4-0.6-0.5-1.1c0-0.3,0.4-0.5,0.5-1C11.1,5.7,11,2.3,11,0.1c0-0.5,0.1-0.7,0.6-0.7s0.5,0.3,0.5,0.7
		C12.1,1.8,12.2,3.5,12.2,5z"/>
	<path class="st0" d="M11,0c0-0.5,0.6-0.8,0.9-0.5"/>
	<path class="st0" d="M14.7,8c0.3,0.3,0,1.1-0.6,0.9C13,8.5,12,8.7,10.9,8.5c-0.3-0.1-0.4-0.6-0.4-0.9"/>
	<path class="st0" d="M12.1,1.8c0,1.5-0.1,2.9,0.1,4.4c0,0.2,0.2,0.4,0.2,0.5"/>
	<path class="st0" d="M20.5,22.3c0.2,0,1.2-0.1,1.7,0c0.1,0,0.2,0.1,0.3,0.2c0.2,0.2,0.1,1,0.1,1.2c0,0.5-0.3,0.8-0.3,1.3
		c0,3.6,0.1,7.9-0.1,8.6c-0.3,1.3-0.3,1.5-0.8,1.5c-0.1,0-0.3,0-0.4-0.5c-0.1-0.3-0.1-0.8-0.1-1.5c0-1.5,0-5.3-0.1-6.8
		c-0.1-1.4-0.4-1.4-0.5-1.5S20,24.7,20,24.4c-0.1-0.5,0.1-1.5,0.2-1.9C20.4,22.4,20.4,22.3,20.5,22.3z"/>
	<path class="st0" d="M23.2,20.4"/>
	<path class="st0" d="M23.3,38.3c-1.2,0-3.1,0.1-3.5-0.2c-0.2-0.1-0.2-0.4-0.2-1.1c-0.1-4.6,0-9.1,0-13.7c0-0.4-0.1-1-0.7-1
		c-0.7,0-2.1-0.1-2.2,0c-0.1,0.1-0.2,0.1-0.2,0.2c-0.2,0.4-0.3,1.5-0.3,1.9c0,0.2,0.1,0.3,0.4,0.4c0.7,0.1,1,0.5,1,1.5
		c0.1,3.4,0.1,10.2-0.3,11.3c-0.2,0.6-1.3,0.9-1.5,0.3c-0.2-0.4-0.2-10.6-0.2-14.8c0-0.7-0.2-1-1-1c-1,0-1.9,0-3,0
		c-0.1,0-0.3,0.1-0.3,0.3c-0.2,0.6-0.4,1.9-0.2,2.1c0,0.1,0.1,0.2,0.3,0.2c1.4,0.1,2,0.8,2,2.2c0.1,2.1,0.4,10.2-0.6,11.1
		c-0.4,0.3-1.8,0.3-2.1,0.2c-0.2-0.1-0.4-0.3-0.4-0.5c-0.3-2.5,0.1-14.5-0.1-15.1c-0.1-0.2-0.2-0.3-0.4-0.3c-0.4-0.1-2.2,0-2.5-0.1
		c-0.1,0-0.2-0.1-0.2-0.2c0-0.4,0-0.9,0.2-1.3c0.1-0.2,0.3-0.2,0.4-0.2c5.3,0,12.8,0,15.7,0c0.2,0,0.5,0,0.6-0.3s0.2-1.2,0.2-1.4
		c0-0.1-0.1-0.2-0.3-0.2c-0.3,0-11.9,0-17.8-0.1c-0.3,0-0.9,0-0.9-0.2c-0.1-0.3-0.1-0.9,0.1-1.2c0.6-1.2,1.1-0.9,1.5-2.6
		c0.2-1-0.1-1.8,0.4-2.7c0.7-1.1,1.2-1.4,1.6-2.2c0.3-0.5-0.3-1.2-0.9-1.1c-0.4,0.2-2.8,1.8-4.1,3.9c-1,1.7-1.4,3.6-2.1,5.4
		c-0.2,0.5-0.4,0.6-1.2,0.7c-0.5,0-0.6,1.7-0.3,1.9c0.1,0,0.2,0.1,0.2,0.1c0.7,0.1,0.9,1,0.9,1.8c0,0,0.2,13.7-0.2,15.1
		c-0.3,1-0.5,0.9-0.8,1c0,0-0.1,0-0.2,0.2c-0.1,0.3-0.2,1-0.1,1.3c0,0.1,0.1,0.2,0.3,0.2c9,0,19.7,0,23.5,0c0.2,0,0.3,0,0.4-0.3
		c0.1-0.4,0.2-0.9,0.1-1.1C23.7,38.3,23.5,38.3,23.3,38.3z M3.2,37.9c-0.4,0.5-0.8,0.6-0.8,0.1c-0.1-3.8,0-11.7,0-11.9
		c0.1-0.4,0.7-0.6,1,0C3.8,26.9,3.9,37.1,3.2,37.9z M7.4,37.9C7,38.4,6,38.6,5.8,38c-0.3-0.9-0.2-12.6-0.1-12.8
		c0.1-0.5,0.9-0.4,1.2-0.2c0.7,0.5,0.8,0.9,0.9,2C8,30.1,8,37.1,7.4,37.9z"/>
</g>
</svg>
